<svg width="189" height="263" viewBox="0 0 189 263" fill="none" xmlns="http://www.w3.org/2000/svg">
<g opacity="0.5">
<rect width="6.99766" height="6.99766" transform="matrix(0.720135 0.693834 -0.720135 0.693834 193.961 19.3789)" fill="white"/>
</g>
<g opacity="0.5">
<rect width="6.99766" height="6.99766" transform="matrix(0.720135 0.693834 -0.720135 0.693834 119.039 19.3789)" fill="white"/>
</g>
<g opacity="0.5">
<rect width="6.99766" height="6.99766" transform="matrix(0.720135 0.693834 -0.720135 0.693834 193.961 52.6646)" fill="white"/>
</g>
<g opacity="0.5">
<rect width="6.99766" height="6.99766" transform="matrix(0.720135 0.693834 -0.720135 0.693834 119.039 52.6646)" fill="white"/>
</g>
<rect width="6.99766" height="6.99766" transform="matrix(0.720135 0.693834 -0.720135 0.693834 193.961 85.9504)" fill="white"/>
<g opacity="0.5">
<rect width="6.99766" height="6.99766" transform="matrix(0.720135 0.693834 -0.720135 0.693834 119.039 85.9504)" fill="white"/>
</g>
<g opacity="0.5">
<rect width="6.99766" height="6.99766" transform="matrix(0.720135 0.693834 -0.720135 0.693834 193.961 119.236)" fill="white"/>
</g>
<g opacity="0.5">
<rect width="6.99766" height="6.99766" transform="matrix(0.720135 0.693834 -0.720135 0.693834 119.039 119.236)" fill="white"/>
</g>
<g opacity="0.5">
<rect width="6.99766" height="6.99766" transform="matrix(0.720135 0.693834 -0.720135 0.693834 193.961 152.522)" fill="white"/>
</g>
<g opacity="0.5">
<rect width="6.99766" height="6.99766" transform="matrix(0.720135 0.693834 -0.720135 0.693834 119.039 152.522)" fill="white"/>
</g>
<rect width="6.99766" height="6.99766" transform="matrix(0.720135 0.693834 -0.720135 0.693834 193.961 185.808)" fill="white"/>
<g opacity="0.5">
<rect width="6.99766" height="6.99766" transform="matrix(0.720135 0.693834 -0.720135 0.693834 119.039 185.808)" fill="white"/>
</g>
<g opacity="0.5">
<rect width="6.99766" height="6.99766" transform="matrix(0.720135 0.693834 -0.720135 0.693834 193.961 219.094)" fill="white"/>
</g>
<g opacity="0.5">
<rect width="6.99766" height="6.99766" transform="matrix(0.720135 0.693834 -0.720135 0.693834 119.039 219.094)" fill="white"/>
</g>
<rect width="6.99766" height="6.99766" transform="matrix(0.720135 0.693834 -0.720135 0.693834 193.961 252.38)" fill="white"/>
<g opacity="0.5">
<rect width="6.99766" height="6.99766" transform="matrix(0.720135 0.693834 -0.720135 0.693834 119.039 252.379)" fill="white"/>
</g>
<g opacity="0.5">
<rect width="6.99766" height="6.99766" transform="matrix(0.720135 0.693834 -0.720135 0.693834 159.413 19.3789)" fill="white"/>
</g>
<g opacity="0.5">
<rect width="6.99766" height="6.99766" transform="matrix(0.720135 0.693834 -0.720135 0.693834 159.413 52.6646)" fill="white"/>
</g>
<g opacity="0.5">
<rect width="6.99766" height="6.99766" transform="matrix(0.720135 0.693834 -0.720135 0.693834 159.413 85.9504)" fill="white"/>
</g>
<rect width="6.99766" height="6.99766" transform="matrix(0.720135 0.693834 -0.720135 0.693834 159.413 119.236)" fill="white"/>
<g opacity="0.5">
<rect width="6.99766" height="6.99766" transform="matrix(0.720135 0.693834 -0.720135 0.693834 159.413 152.522)" fill="white"/>
</g>
<g opacity="0.5">
<rect width="6.99766" height="6.99766" transform="matrix(0.720135 0.693834 -0.720135 0.693834 159.413 185.808)" fill="white"/>
</g>
<g opacity="0.5">
<rect width="6.99766" height="6.99766" transform="matrix(0.720135 0.693834 -0.720135 0.693834 159.413 219.094)" fill="white"/>
</g>
<g opacity="0.5">
<rect width="6.99766" height="6.99766" transform="matrix(0.720135 0.693834 -0.720135 0.693834 159.413 252.379)" fill="white"/>
</g>
<g opacity="0.5">
<rect width="6.99766" height="6.99766" transform="matrix(0.720135 0.693834 -0.720135 0.693834 79.9608 19.3789)" fill="white"/>
</g>
<g opacity="0.5">
<rect width="6.99766" height="6.99766" transform="matrix(0.720135 0.693834 -0.720135 0.693834 5.03928 19.3789)" fill="white"/>
</g>
<g opacity="0.5">
<rect width="6.99766" height="6.99766" transform="matrix(0.720135 0.693834 -0.720135 0.693834 79.9608 52.6646)" fill="white"/>
</g>
<g opacity="0.5">
<rect width="6.99766" height="6.99766" transform="matrix(0.720135 0.693834 -0.720135 0.693834 5.03928 52.6646)" fill="white"/>
</g>
<rect width="6.99766" height="6.99766" transform="matrix(0.720135 0.693834 -0.720135 0.693834 79.9608 85.9504)" fill="white"/>
<g opacity="0.5">
<rect width="6.99766" height="6.99766" transform="matrix(0.720135 0.693834 -0.720135 0.693834 5.03928 85.9504)" fill="white"/>
</g>
<g opacity="0.5">
<rect width="6.99766" height="6.99766" transform="matrix(0.720135 0.693834 -0.720135 0.693834 79.9608 119.236)" fill="white"/>
</g>
<g opacity="0.5">
<rect width="6.99766" height="6.99766" transform="matrix(0.720135 0.693834 -0.720135 0.693834 5.03928 119.236)" fill="white"/>
</g>
<g opacity="0.5">
<rect width="6.99766" height="6.99766" transform="matrix(0.720135 0.693834 -0.720135 0.693834 79.9608 152.522)" fill="white"/>
</g>
<g opacity="0.5">
<rect width="6.99766" height="6.99766" transform="matrix(0.720135 0.693834 -0.720135 0.693834 5.03928 152.522)" fill="white"/>
</g>
<rect width="6.99766" height="6.99766" transform="matrix(0.720135 0.693834 -0.720135 0.693834 79.9608 185.808)" fill="white"/>
<g opacity="0.5">
<rect width="6.99766" height="6.99766" transform="matrix(0.720135 0.693834 -0.720135 0.693834 5.03928 185.808)" fill="white"/>
</g>
<g opacity="0.5">
<rect width="6.99766" height="6.99766" transform="matrix(0.720135 0.693834 -0.720135 0.693834 79.9608 219.094)" fill="white"/>
</g>
<g opacity="0.5">
<rect width="6.99766" height="6.99766" transform="matrix(0.720135 0.693834 -0.720135 0.693834 5.03928 219.094)" fill="white"/>
</g>
<rect width="6.99766" height="6.99766" transform="matrix(0.720135 0.693834 -0.720135 0.693834 79.9608 252.38)" fill="white"/>
<g opacity="0.5">
<rect width="6.99766" height="6.99766" transform="matrix(0.720135 0.693834 -0.720135 0.693834 5.03928 252.379)" fill="white"/>
</g>
<g opacity="0.5">
<rect width="6.99766" height="6.99766" transform="matrix(0.720135 0.693834 -0.720135 0.693834 45.4131 19.3789)" fill="white"/>
</g>
<g opacity="0.5">
<rect width="6.99766" height="6.99766" transform="matrix(0.720135 0.693834 -0.720135 0.693834 45.4131 52.6646)" fill="white"/>
</g>
<g opacity="0.5">
<rect width="6.99766" height="6.99766" transform="matrix(0.720135 0.693834 -0.720135 0.693834 45.4131 85.9504)" fill="white"/>
</g>
<rect width="6.99766" height="6.99766" transform="matrix(0.720135 0.693834 -0.720135 0.693834 45.4131 119.236)" fill="white"/>
<g opacity="0.5">
<rect width="6.99766" height="6.99766" transform="matrix(0.720135 0.693834 -0.720135 0.693834 45.4131 152.522)" fill="white"/>
</g>
<g opacity="0.5">
<rect width="6.99766" height="6.99766" transform="matrix(0.720135 0.693834 -0.720135 0.693834 45.4131 185.808)" fill="white"/>
</g>
<g opacity="0.5">
<rect width="6.99766" height="6.99766" transform="matrix(0.720135 0.693834 -0.720135 0.693834 45.4131 219.094)" fill="white"/>
</g>
<g opacity="0.5">
<rect width="6.99766" height="6.99766" transform="matrix(0.720135 0.693834 -0.720135 0.693834 45.4131 252.379)" fill="white"/>
</g>
</svg>
